<svg width="29" height="28" viewBox="0 0 29 28" fill="none" xmlns="http://www.w3.org/2000/svg">
<path fill-rule="evenodd" clip-rule="evenodd" d="M13.1833 7.93332C13.1833 9.50356 11.7389 11.0667 9.58332 11.0667C7.42772 11.0667 5.98332 9.50356 5.98332 7.93332C5.98332 6.36308 7.42772 4.79999 9.58332 4.79999C11.7389 4.79999 13.1833 6.36308 13.1833 7.93332ZM15.1833 7.93332C15.1833 10.7684 12.6761 13.0667 9.58332 13.0667C6.49052 13.0667 3.98332 10.7684 3.98332 7.93332C3.98332 5.09826 6.49052 2.79999 9.58332 2.79999C12.6761 2.79999 15.1833 5.09826 15.1833 7.93332ZM22.5167 11.2C22.5167 12.1573 21.7406 12.9333 20.7833 12.9333C19.826 12.9333 19.05 12.1573 19.05 11.2C19.05 10.2427 19.826 9.46665 20.7833 9.46665C21.7406 9.46665 22.5167 10.2427 22.5167 11.2ZM24.5167 11.2C24.5167 13.2619 22.8452 14.9333 20.7833 14.9333C18.7215 14.9333 17.05 13.2619 17.05 11.2C17.05 9.13812 18.7215 7.46665 20.7833 7.46665C22.8452 7.46665 24.5167 9.13812 24.5167 11.2ZM4.43775 18.9535C2.99616 20.2113 2.18332 21.8209 2.18332 23.3333C2.18332 23.8856 1.7356 24.3333 1.18332 24.3333C0.631034 24.3333 0.183319 23.8856 0.183319 23.3333C0.183319 21.1124 1.35535 18.9887 3.12286 17.4465C4.90008 15.8958 7.34749 14.8667 10.05 14.8667C12.7525 14.8667 15.1999 15.8958 16.9771 17.4465C18.7446 18.9887 19.9167 21.1124 19.9167 23.3333C19.9167 23.8856 19.4689 24.3333 18.9167 24.3333C18.3644 24.3333 17.9167 23.8856 17.9167 23.3333C17.9167 21.8209 17.1038 20.2113 15.6622 18.9535C14.2303 17.7041 12.2444 16.8667 10.05 16.8667C7.85556 16.8667 5.86964 17.7041 4.43775 18.9535ZM20.9493 18.8339C21.3419 18.7679 21.7528 18.7333 22.1773 18.7333C24.7646 18.7333 26.5942 20.6577 26.2813 23.2117C26.2142 23.7599 26.6041 24.2587 27.1523 24.3259C27.7005 24.3931 28.1993 24.0031 28.2665 23.4549C28.7377 19.6089 25.8627 16.7333 22.1773 16.7333C21.6445 16.7333 21.1225 16.7767 20.6173 16.8617C20.0727 16.9534 19.7055 17.4692 19.7972 18.0138C19.8889 18.5584 20.4047 18.9256 20.9493 18.8339Z" fill="#BFBFBF"/>
</svg>
